<svg xmlns="http://www.w3.org/2000/svg" width="83" height="34" fill="none"  xmlns:v="https://vecta.io/nano"><path d="M15.2 8.044c-.104.313-.209.992-.209 2.089v3.97c0 1.201-.627 2.246-1.88 3.134-1.306.94-2.873 1.41-4.701 1.41-2.612 0-4.649-.836-6.164-2.455C.783 14.625 0 12.693 0 10.29c0-2.559.783-4.701 2.298-6.372C3.97 1.985 6.32 1.045 9.298 1.045c1.985 0 3.552.366 4.701 1.149l-.209 3.761-.104.052c-.313-.522-.888-.94-1.776-1.254a7.45 7.45 0 0 0-2.612-.47c-.888 0-1.724.157-2.403.418-.679.313-1.254.679-1.724 1.254-.992 1.097-1.515 2.559-1.515 4.335 0 1.567.418 2.821 1.306 3.761s2.037 1.41 3.395 1.41c1.515 0 2.559-.418 3.134-1.201.157-.261.261-.522.261-.888V11.23h-1.671c-.888 0-1.358.052-1.463.209h-.052l-.104-3.343c.261.052 1.201.104 2.873.104h1.515c.992 0 1.776-.052 2.351-.157zm9.82 3.865h-5.223l-1.567.052.052-3.134c.209.052.731.104 1.671.104h4.962c.94 0 1.515-.052 1.671-.104l.052 3.134c-.418-.052-.94-.052-1.619-.052zm11.648-7.731v14.207c-.418-.052-1.463-.104-3.134-.104h-.418V4.179h-2.507c-.731 0-1.201.052-1.306.104-.157.052-.261.157-.313.209h-.052V1.254l.052-.052c.261.104 1.045.157 2.246.157h7.992c.731 0 1.201-.052 1.306-.104.157-.052.261-.157.313-.209h.052v3.238l-.052.052c-.261-.104-1.045-.157-2.246-.157h-1.933zm5.484 7.522c0-.992.157-1.933.522-2.768s.836-1.619 1.462-2.246c1.306-1.358 3.082-2.037 5.223-2.037 1.828 0 3.239.575 4.335 1.776 1.097 1.149 1.619 2.612 1.619 4.335 0 .679-.052 1.149-.157 1.358-.836.261-2.559.366-5.171.366h-4.492c.209.888.731 1.619 1.567 2.142.783.522 1.88.784 3.134.784 1.358 0 2.507-.261 3.5-.731.261-.104.418-.261.575-.366l-.052 1.097-.157 1.985c-.627.418-1.672.731-3.134.94l-1.201.104c-2.142 0-3.97-.627-5.328-1.88-1.515-1.254-2.246-2.873-2.246-4.858zm9.768-1.567c-.366-1.828-1.358-2.716-2.977-2.716-1.306 0-2.298.575-2.925 1.671-.209.366-.366.731-.47 1.149.209 0 .47 0 .731.052h.94.888.731 1.254l1.045-.052c.313-.104.575-.104.784-.104zm15.774 3.813l.313 3.134c-.94.94-2.455 1.41-4.492 1.41-1.985 0-3.604-.627-4.805-1.776-1.254-1.201-1.88-2.821-1.88-4.858s.627-3.761 1.88-5.067c1.306-1.41 3.082-2.089 5.328-2.089 1.567 0 2.873.366 3.97 1.045l-.522 3.238h-.105c-.418-.47-.836-.836-1.306-.94-.731-.261-1.463-.366-2.194-.366s-1.306.104-1.724.261c-.418.209-.784.47-1.097.784-.575.679-.888 1.567-.888 2.716 0 1.985.679 3.291 2.089 3.918.47.209.992.313 1.515.313a5.83 5.83 0 0 0 1.41-.157c.418-.104.784-.209 1.097-.366.679-.313 1.149-.731 1.41-1.201zm5.85-4.544v7.417l.052 1.41H70.41V0h3.134v5.902c1.097-.836 2.246-1.254 3.395-1.254 1.41 0 2.559.47 3.447 1.41.836.94 1.254 2.194 1.254 3.761v5.067l.052 2.612c.052.313.105.47.157.575s.157.157.209.209v.052l-1.515-.105h-.888l-1.097.052v-7.365c0-1.149-.261-2.037-.784-2.612-.366-.418-.94-.627-1.619-.627-.94 0-1.828.575-2.612 1.724z" fill="#001f3f"/><path d="M5.589 26.221c-.052.104-.052.366-.052.784v1.462c0 .418-.209.836-.679 1.149-.47.366-1.045.522-1.724.522-.94 0-1.724-.313-2.298-.888S0 27.945 0 27.057c0-.94.261-1.724.836-2.351.627-.731 1.515-1.045 2.612-1.045.731 0 1.306.157 1.724.418l-.104 1.41h-.052c-.104-.209-.313-.366-.627-.47a3.04 3.04 0 0 0-.992-.157 2.44 2.44 0 0 0-.888.157c-.261.104-.47.261-.627.47-.366.418-.575.94-.575 1.619 0 .575.157 1.045.47 1.41s.731.522 1.254.522c.575 0 .94-.157 1.149-.418.052-.104.104-.209.104-.313v-.783h-.627c-.313 0-.522.052-.522.104l-.052-1.254c.104 0 .47.052 1.097.052h.575a1.95 1.95 0 0 1 .836-.209zm2.246-3.291v6.529.522H6.634V22.93h1.201zm.992 4.597a3.04 3.04 0 0 1 .157-.992c.104-.313.261-.575.522-.836.47-.522 1.097-.784 1.88-.784s1.358.261 1.828.731c.418.47.627 1.045.627 1.776s-.209 1.358-.679 1.828c-.47.522-1.097.784-1.88.784s-1.41-.261-1.88-.731c-.366-.47-.575-1.045-.575-1.776zm1.149 0c0 .209.052.366.104.575a1.01 1.01 0 0 0 .261.47c.261.313.627.418 1.045.418s.679-.157.94-.418c.209-.261.313-.627.313-1.045s-.104-.784-.366-1.045c-.261-.313-.575-.418-.992-.418s-.784.157-.993.47c-.209.261-.313.574-.313.992zm6.007-4.544v2.298c.366-.157.731-.261 1.097-.261a2.53 2.53 0 0 1 .94.157c.261.104.522.261.731.522.418.47.679 1.097.679 1.828 0 .783-.261 1.462-.731 1.933s-1.045.679-1.724.679c-.575 0-1.097-.157-1.463-.47-.418-.366-.627-.836-.627-1.463v-5.171h1.097v-.052zm0 3.447v1.671c0 .575.366.836 1.045.836a1.09 1.09 0 0 0 .836-.418c.209-.313.366-.679.366-1.149s-.104-.784-.366-1.045c-.209-.209-.522-.313-.888-.313a1.43 1.43 0 0 0-.731.209c-.104.104-.157.157-.261.209zm7.73 3.291c-.47.261-.836.366-1.201.366s-.679-.052-.94-.104a1.62 1.62 0 0 1-.679-.313c-.366-.261-.575-.679-.575-1.149s.209-.836.679-1.149 1.149-.47 1.985-.47h.209.104.105c-.052-.522-.261-.784-.679-.888-.157-.052-.261-.052-.418-.052s-.313 0-.47.052-.313.052-.418.104c-.313.105-.522.209-.679.313l-.157-1.045c.575-.313 1.149-.418 1.828-.418 1.045 0 1.671.366 1.985 1.097.104.261.157.522.157.784v1.724c0 .366.104.627.366.731l-.836.783c-.104-.052-.261-.209-.366-.366zm-.261-.992v-.992h-.261-.209c-.679 0-1.149.157-1.306.47-.052.104-.105.209-.105.313s0 .209.052.261.104.157.209.209c.157.104.418.157.731.157s.627-.052.888-.209v-.209zm3.709-5.798v6.529.522H25.96V22.93h1.201zm6.947 1.828v5.276c-.157 0-.522-.052-1.149-.052h-.157v-5.223h-.94c-.261 0-.418 0-.47.052s-.104.052-.104.104v-1.201c.104.052.366.052.836.052h2.977c.261 0 .418 0 .47-.052s.105-.052.105-.052v1.201c-.105-.052-.366-.052-.836-.052h-.731v-.052zm2.194 2.821c0-.366.052-.731.209-1.045.104-.313.313-.575.522-.836.47-.522 1.149-.731 1.933-.731.679 0 1.201.209 1.619.679.418.418.627.94.627 1.619 0 .261 0 .418-.052.522-.313.104-.94.157-1.933.157h-1.672c.105.313.261.575.575.784s.679.261 1.149.261c.522 0 .94-.104 1.306-.261.105-.052.157-.105.209-.157v.418l-.052.731c-.261.157-.627.261-1.149.366-.157 0-.313.052-.47.052-.784 0-1.462-.209-1.985-.679-.575-.575-.836-1.149-.836-1.88zm3.656-.627c-.104-.679-.522-1.045-1.097-1.045-.47 0-.836.209-1.097.627-.052.104-.157.261-.157.418h.261.366.313.261.47.366c.104.052.209 0 .313 0zm6.007 1.41l.104 1.149c-.366.366-.888.522-1.671.522-.731 0-1.306-.209-1.776-.679a2.4 2.4 0 0 1-.731-1.776c0-.784.209-1.358.679-1.88s1.149-.784 1.985-.784c.575 0 1.045.105 1.462.366l-.209 1.201h-.052c-.157-.157-.313-.313-.47-.366-.261-.104-.522-.157-.836-.157-.261 0-.47.052-.627.104s-.261.157-.418.313c-.209.261-.313.575-.313.992 0 .731.261 1.201.784 1.462.157.052.366.105.575.105s.366 0 .522-.052l.418-.157c.261-.052.47-.209.575-.366zm2.403-1.671v2.768.522h-1.201v-6.738h1.149v2.194c.418-.313.836-.47 1.253-.47.522 0 .94.157 1.254.522s.47.836.47 1.41v1.88.94c0 .104.052.157.052.209.052.052.052.052.052.104-.261 0-.418-.052-.575-.052h-.313-.418v-2.716c0-.418-.105-.731-.313-.94-.157-.157-.366-.261-.575-.261-.261 0-.575.209-.836.627zm5.589 0v2.716c0 .261 0 .47.052.627h-1.201v-4.962h1.149v.418c.418-.366.836-.522 1.358-.522s.94.157 1.254.522.47.836.47 1.41v1.88.94c0 .104.052.157.052.209.052.052.052.052.052.104-.261 0-.418-.052-.575-.052h-.313-.418v-2.559c0-.94-.261-1.358-.836-1.358-.418 0-.784.209-1.045.627zm4.022.836a3.04 3.04 0 0 1 .157-.992c.105-.313.261-.575.522-.836.47-.522 1.097-.784 1.88-.784s1.358.261 1.828.731c.418.47.627 1.045.627 1.776s-.209 1.358-.679 1.828c-.47.522-1.097.784-1.88.784s-1.41-.261-1.88-.731c-.366-.47-.575-1.045-.575-1.776zm1.201 0c0 .209.052.366.104.575a1.01 1.01 0 0 0 .261.47c.261.313.627.418 1.045.418s.679-.157.94-.418c.209-.261.313-.627.313-1.045s-.105-.784-.366-1.045c-.261-.313-.574-.418-.992-.418s-.784.157-.992.47c-.209.261-.313.574-.313.992zm5.954-4.597v6.529.522h-1.201V22.93h1.201zm.94 4.597a3.04 3.04 0 0 1 .157-.992c.104-.313.313-.575.522-.836.47-.522 1.097-.784 1.88-.784s1.358.261 1.828.731c.418.47.627 1.045.627 1.776s-.209 1.358-.679 1.828c-.47.522-1.097.784-1.88.784s-1.41-.261-1.88-.731c-.366-.47-.575-1.045-.575-1.776zm1.149 0c0 .209.052.366.104.575a1.01 1.01 0 0 0 .261.47c.261.313.627.418 1.045.418s.731-.157.94-.418.313-.627.313-1.045-.104-.784-.366-1.045c-.261-.313-.575-.418-.992-.418s-.784.157-.992.47c-.209.261-.313.574-.313.992zm6.163 1.149c-.105.157-.157.261-.157.366s0 .157.052.209.105.105.209.157c.209.105.575.209 1.045.261s.836.157 1.097.261.47.261.679.418c.313.313.47.731.47 1.306s-.209.993-.575 1.306c-.418.313-.992.47-1.776.47s-1.41-.157-1.88-.522c-.47-.313-.731-.784-.731-1.358 0-.679.261-1.149.784-1.41-.157-.105-.261-.261-.313-.418s-.052-.366-.052-.575c0-.366.157-.627.47-.888-.366-.313-.522-.731-.522-1.254 0-.575.209-1.045.627-1.41.418-.418.992-.575 1.671-.575.366 0 .679.052.992.209.418-.157.731-.313.888-.47a1.3 1.3 0 0 0 .366-.261h.052c.052.052.052.209.104.313l.105.366c.052.261.105.47.157.575-.157.157-.366.261-.731.313.157.261.209.522.209.836s-.052.575-.157.784a1.88 1.88 0 0 1-.418.627c-.418.366-.94.575-1.567.575-.575-.052-.836-.104-1.097-.209zm-.157-2.141c-.052.104-.052.209-.052.366 0 .105 0 .209.052.313s.105.209.209.313c.209.209.47.261.836.261.261 0 .47-.105.679-.261.209-.209.313-.418.313-.679s-.105-.47-.261-.627-.418-.261-.731-.261c-.522 0-.888.209-1.045.575zm1.201 5.85c.784 0 1.149-.261 1.149-.836a.68.68 0 0 0-.366-.627c-.261-.157-.784-.313-1.463-.418l-.261-.052a1.23 1.23 0 0 0-.47.418c-.105.157-.157.313-.157.47s.052.313.104.418.157.209.313.313c.313.209.679.313 1.149.313zm4.074-.313l-1.201-.418.313-.261c.47-.366.836-.94 1.149-1.671l.209-.522-1.828-4.126h1.306l1.149 2.873 1.045-2.873h1.358c-.157.209-.366.627-.575 1.254l-.731 1.776c-.888 2.194-1.672 3.552-2.194 3.97z" fill="#ed2326"/></svg>