<svg width="30" height="30" viewBox="0 0 30 30" fill="none" xmlns="http://www.w3.org/2000/svg">
<g clip-path="url(#clip0_31_673)">
<path d="M15 6.25C17.021 6.25 18.8766 6.94191 20.3579 8.09258L24.9044 3.75511C22.261 1.42494 18.8009 0 15 0C9.24054 0 4.24588 3.24989 1.7323 8.01231L6.78784 12.0035C8.01251 8.64922 11.2219 6.25 15 6.25Z" fill="#F44336"/>
<path d="M29.8701 16.8773C29.9482 16.2627 30 15.6358 30 15C30 13.9277 29.8829 12.8835 29.669 11.875H15V18.125H23.1078C22.4519 19.8297 21.284 21.2722 19.7975 22.2743L24.8718 26.2804C27.5617 23.9193 29.4025 20.6129 29.8701 16.8773Z" fill="#2196F3"/>
<path d="M6.25 15C6.25 13.9457 6.44607 12.9395 6.7878 12.0035L1.73225 8.01231C0.630417 10.1 0 12.4752 0 15C0 17.4966 0.61882 19.8454 1.69777 21.9162L6.75972 17.9199C6.43555 17.0055 6.25 16.0255 6.25 15Z" fill="#FFC107"/>
<path d="M15 23.75C11.1931 23.75 7.96301 21.3144 6.7597 17.9199L1.69775 21.9162C4.19905 26.7168 9.21225 30 15 30C18.7847 30 22.2359 28.594 24.8718 26.2804L19.7975 22.2743C18.4265 23.1986 16.7855 23.75 15 23.75Z" fill="#00B060"/>
<path opacity="0.1" d="M15 29.6875C10.5854 29.6875 6.61592 27.8661 3.80945 24.9641C6.55672 28.0473 10.5456 30 15 30C19.4132 30 23.3691 28.0858 26.1102 25.051C23.312 27.9058 19.3726 29.6875 15 29.6875Z" fill="black"/>
<path opacity="0.1" d="M15 17.8125V18.125H23.1078L23.2344 17.8125H15Z" fill="black"/>
<path d="M29.993 15.1838C29.994 15.1222 29.9999 15.0617 29.9999 15C29.9999 14.9825 29.9972 14.9657 29.9971 14.9482C29.9963 15.0269 29.9923 15.1048 29.993 15.1838Z" fill="#E6E6E6"/>
<path opacity="0.2" d="M15 11.875V12.1875H29.732C29.7123 12.0844 29.6908 11.9774 29.669 11.875H15Z" fill="white"/>
<path d="M29.669 11.875H15V18.125H23.1078C21.8469 21.402 18.7215 23.75 15 23.75C10.1675 23.75 6.25 19.8325 6.25 15C6.25 10.1675 10.1675 6.25 15 6.25C16.7523 6.25 18.3674 6.78833 19.7356 7.67586C19.9451 7.81197 20.1611 7.93976 20.3579 8.09258L24.9043 3.75511L24.8018 3.67622C22.1712 1.39633 18.7544 0 15 0C6.7157 0 0 6.7157 0 15C0 23.2842 6.7157 30 15 30C22.6471 30 28.9443 24.2735 29.8701 16.8773C29.9482 16.2627 30 15.6358 30 15C30 13.9277 29.8829 12.8835 29.669 11.875Z" fill="url(#paint0_linear_31_673)"/>
<path opacity="0.1" d="M19.7356 7.36336C18.3674 6.47583 16.7523 5.9375 15 5.9375C10.1675 5.9375 6.25 9.85497 6.25 14.6875C6.25 14.7402 6.25071 14.7814 6.25162 14.834C6.33593 10.0744 10.2203 6.25 15 6.25C16.7523 6.25 18.3674 6.78833 19.7356 7.67586C19.9451 7.81197 20.1611 7.93976 20.3579 8.09258L24.9043 3.75511L20.3579 7.78008C20.1611 7.62726 19.9451 7.49947 19.7356 7.36336Z" fill="black"/>
<path opacity="0.2" d="M15 0.3125C18.7188 0.3125 22.1037 1.68549 24.7241 3.927L24.9043 3.75511L24.7668 3.63534C22.1362 1.35545 18.7544 0 15 0C6.7157 0 0 6.7157 0 15C0 15.0527 0.00732425 15.1036 0.00785825 15.1562C0.0925445 6.94481 6.76842 0.3125 15 0.3125Z" fill="white"/>
</g>
<defs>
<linearGradient id="paint0_linear_31_673" x1="0" y1="15" x2="30" y2="15" gradientUnits="userSpaceOnUse">
<stop stop-color="white" stop-opacity="0.2"/>
<stop offset="1" stop-color="white" stop-opacity="0"/>
</linearGradient>
<clipPath id="clip0_31_673">
<rect width="30" height="30" fill="white"/>
</clipPath>
</defs>
</svg>
