<svg width="344" height="389" viewBox="0 0 344 389" fill="none" xmlns="http://www.w3.org/2000/svg">
<path opacity="0.15" d="M284.889 29.4294C257.262 61.4094 267.647 116.344 277.639 169.71C288.612 227.588 299.78 287.427 262.944 319.015C234.534 343.54 198.678 334.122 160.862 324.312C131.472 316.661 101.102 308.813 73.8673 317.838C40.5584 329.021 14.3032 354.919 3.52682 387.291C2.93902 388.861 2.54715 390.43 2.15528 392H0C0.587804 390.234 0.979672 388.468 1.56748 386.703C12.5398 353.742 39.3828 327.451 73.0836 316.072C100.71 306.851 131.472 314.699 161.254 322.547C198.678 332.16 233.946 341.381 261.573 317.642C297.625 286.839 286.456 227.588 275.68 170.298C265.491 116.737 255.107 61.2132 283.321 28.4485C296.645 12.9489 317.806 3.53153 347 0V1.96196C318.394 5.2973 297.82 14.5185 284.889 29.4294Z" fill="black"/>
</svg>
